<svg width="50" height="50" viewBox="0 0 50 50" fill="none" xmlns="http://www.w3.org/2000/svg">
<path fill-rule="evenodd" clip-rule="evenodd" d="M23.6198 3.02329C21.8471 3.22753 20.5281 3.51875 19.1088 4.01925C15.1749 5.40644 11.6917 8.46355 9.75775 12.2266C8.46126 14.7494 7.76509 18.2082 8.0719 20.6032C8.31351 22.4892 8.88724 24.1459 10.1958 26.7369C11.4168 29.1548 12.7904 31.3454 14.9427 34.3076C17.2158 37.4361 21.4081 42.37 24.1271 45.1168L25.0014 46L25.8757 45.1168C28.5947 42.37 32.787 37.4361 35.0601 34.3076C37.1804 31.3894 38.5767 29.1687 39.7675 26.8211C41.4964 23.4126 42.1148 21.1657 41.9828 18.7731C41.6478 12.703 38.0611 7.39676 32.4451 4.66242C31.1275 4.02085 29.248 3.44018 27.6406 3.17807C26.8828 3.05442 24.2341 2.95246 23.6198 3.02329ZM24.2689 12.7424C21.4777 13.0199 19.1017 14.9419 18.2512 17.6101C18.0771 18.1561 18.0501 18.4163 18.0501 19.5448C18.0501 20.6734 18.0771 20.9336 18.2512 21.4796C18.9578 23.6964 20.7396 25.4321 23.0153 26.1204C23.5758 26.29 23.8429 26.3164 25.0014 26.3164C26.1599 26.3164 26.427 26.29 26.9875 26.1204C29.2632 25.4321 31.045 23.6964 31.7516 21.4796C31.9257 20.9336 31.9528 20.6734 31.9528 19.5448C31.9528 18.0469 31.816 17.4623 31.2056 16.3516C30.1162 14.369 28.0094 12.951 25.8845 12.7703C25.565 12.7431 25.2259 12.7103 25.1309 12.6974C25.0359 12.6844 24.6481 12.7046 24.2689 12.7424Z" fill="#A0A0A0"/>
<path d="M24.2689 12.7424C21.4777 13.0199 19.1017 14.9419 18.2512 17.6101C18.0771 18.1561 18.0501 18.4163 18.0501 19.5448C18.0501 20.6734 18.0771 20.9336 18.2512 21.4796C18.9578 23.6964 20.7396 25.4321 23.0153 26.1204C23.5758 26.29 23.8429 26.3164 25.0014 26.3164C26.1599 26.3164 26.427 26.29 26.9875 26.1204C29.2632 25.4321 31.045 23.6964 31.7516 21.4796C31.9257 20.9336 31.9528 20.6734 31.9528 19.5448C31.9528 18.0469 31.816 17.4623 31.2056 16.3516C30.1162 14.369 28.0094 12.951 25.8845 12.7703C25.565 12.7431 25.2259 12.7103 25.1309 12.6974C25.0359 12.6844 24.6481 12.7046 24.2689 12.7424Z" fill="#A0A0A0"/>
<path fill-rule="evenodd" clip-rule="evenodd" d="M24.007 9.02115C22.7688 9.20647 21.92 9.62449 21.1959 10.4054C20.4714 11.1868 20.1872 12.0565 20.215 13.4072L20.2294 14.1058L20.0845 14.1835C19.3197 14.5937 19.2579 15.8923 19.9413 17.1899C20.0997 17.4905 20.581 18.0479 20.7203 18.092C20.7686 18.1073 20.8377 18.2525 20.9209 18.5133C21.1541 19.2449 21.6575 20.1602 22.1476 20.7437L22.2772 20.8981L21.7714 21.1809C20.1299 22.0988 19.1701 22.5299 17.4397 23.1268C15.4935 23.798 14.2324 25.9063 14.0098 28.8608C13.9763 29.305 14.0232 29.4401 14.2392 29.5219C14.6634 29.6826 16.8465 30.1826 18.0694 30.3991C20.5583 30.8396 22.4078 31 25 31C27.6279 31 29.5974 30.8258 32.0804 30.3738C33.2482 30.1612 35.3712 29.6695 35.764 29.5207C35.9768 29.4401 36.0236 29.3034 35.9903 28.8608C35.7947 26.2658 34.7944 24.3026 33.2207 23.4256C33.0641 23.3383 32.5928 23.1464 32.1735 22.9992C31.7543 22.852 31.1878 22.6378 30.9147 22.5232C30.2857 22.2592 28.9846 21.6123 28.2733 21.21L27.7258 20.9002L27.9535 20.6157C28.0787 20.4593 28.2437 20.2389 28.3201 20.1261C28.5333 19.8113 28.9554 18.9156 29.084 18.5049C29.1907 18.1642 29.2132 18.1282 29.3858 18.0214C29.718 17.8158 30.1465 17.1421 30.3721 16.4709C30.7211 15.4322 30.5517 14.5835 29.9152 14.1816L29.8007 14.1093L29.782 13.1971C29.7647 12.362 29.7534 12.253 29.6478 11.9064C29.4469 11.2474 29.1873 10.8032 28.7155 10.3116C28.0561 9.62424 27.1605 9.18793 26.1009 9.0378C25.8187 8.99779 24.2465 8.98531 24.007 9.02115ZM23.5969 9.76597C22.5594 10.0081 21.6854 10.6462 21.2539 11.4764C21.085 11.8014 20.9221 12.2582 20.9612 12.2972C21.0021 12.338 21.2639 12.2137 21.518 12.033C21.6641 11.929 21.9221 11.6963 22.0913 11.5158C22.3648 11.2241 22.4162 11.1877 22.5549 11.1877C22.6807 11.1877 22.7553 11.2277 22.9397 11.3942C23.3937 11.804 24.0497 12.1146 24.741 12.2471C25.126 12.3208 26.021 12.3287 26.4706 12.2623C27.2115 12.1528 28.7561 11.6461 28.7561 11.5126C28.7561 11.4041 28.4151 10.9432 28.146 10.6877C27.687 10.252 27.2083 9.98533 26.5552 9.80147C26.2679 9.72062 26.0985 9.70866 25.0864 9.69773C24.0908 9.68697 23.8975 9.69584 23.5969 9.76597ZM22.3011 12.2542C21.8726 12.6599 21.4404 12.8986 20.9137 13.0204C20.8776 13.0288 20.8705 13.2257 20.8876 13.7428C20.9143 14.5463 20.8886 14.6413 20.6302 14.695C20.4139 14.74 20.295 14.8341 20.2051 15.0313C19.9089 15.6816 20.4929 17.2538 21.1467 17.5661C21.3669 17.6713 21.3452 17.632 21.5688 18.3304C21.9225 19.4351 22.6466 20.4865 23.4092 21.0026C23.9443 21.3648 24.4173 21.5145 25.0261 21.5145C26.5117 21.5145 27.8471 20.223 28.4967 18.1583L28.6524 17.6635L28.8548 17.5661C29.4668 17.2716 30.0436 15.8268 29.8364 15.1069C29.779 14.9073 29.6364 14.7669 29.4366 14.7133C29.3448 14.6886 29.229 14.628 29.1795 14.5786C29.0922 14.4916 29.0903 14.4635 29.1198 13.6804C29.1405 13.1311 29.1339 12.7606 29.0993 12.5246C29.0713 12.3336 29.0441 12.1774 29.0389 12.1774C29.0337 12.1774 28.8368 12.2558 28.6013 12.3518C28.0407 12.5802 27.3286 12.7932 26.7917 12.8931C26.2714 12.9899 25.0409 13.0032 24.633 12.9165C23.9782 12.7772 23.2702 12.4817 22.8199 12.1595C22.7013 12.0747 22.5944 12.0059 22.5824 12.0068C22.5705 12.0076 22.4439 12.1189 22.3011 12.2542ZM22.2585 21.6691C21.9973 21.8206 21.4975 22.0947 21.1478 22.2782C20.7981 22.4616 20.5116 22.6271 20.511 22.6458C20.5088 22.722 23.4464 26.5538 23.4655 26.4996C23.4767 26.4675 23.557 26.0582 23.6439 25.59C23.7933 24.785 23.7979 24.7343 23.7283 24.6576C23.6429 24.5636 23.3435 22.9436 23.3882 22.818C23.4714 22.5846 23.4327 22.5902 24.9664 22.5902C25.8853 22.5902 26.4175 22.6063 26.4728 22.6359C26.6399 22.725 26.6421 22.8434 26.492 23.6938C26.3441 24.5325 26.3128 24.6556 26.2474 24.6556C26.2262 24.6556 26.2089 24.6979 26.2089 24.7495C26.2089 24.8726 26.5037 26.4612 26.5453 26.5623C26.5705 26.6236 26.8841 26.226 28.0013 24.7166C28.7845 23.6585 29.4496 22.7583 29.4794 22.7162C29.5285 22.6469 29.4744 22.6088 28.9043 22.3097C28.5582 22.1282 28.0415 21.846 27.756 21.6826C27.4706 21.5191 27.2291 21.3854 27.2195 21.3854C27.2099 21.3854 27.1088 21.4522 26.9947 21.5339C26.7156 21.7337 26.1211 22.0121 25.7771 22.104C25.3957 22.2059 24.6043 22.2059 24.2229 22.104C23.879 22.0121 23.2844 21.7337 23.0053 21.5339C22.8913 21.4522 22.7835 21.3872 22.7657 21.3895C22.7479 21.3917 22.5197 21.5175 22.2585 21.6691ZM19.3012 23.1537C19.0281 23.2709 18.4938 23.4749 18.1139 23.6071C17.734 23.7392 17.3454 23.8863 17.2504 23.934C16.7671 24.1764 16.1279 24.7613 15.7898 25.2706C15.5705 25.6009 15.2331 26.3151 15.095 26.7411C14.836 27.5405 14.6109 28.8883 14.7248 28.9584C14.8035 29.0069 16.4188 29.3994 17.1857 29.5564C18.6827 29.8629 20.1997 30.0808 21.8915 30.2323C22.9217 30.3246 25.9462 30.3613 27.1072 30.2957C29.5443 30.1579 32.0787 29.7744 34.4549 29.1839L35.2968 28.9747L35.2844 28.6331C35.2573 27.8893 34.916 26.607 34.5521 25.8819C34.2815 25.3425 34.0959 25.0747 33.7211 24.6823C33.2081 24.1454 32.885 23.9506 32.0088 23.6502C31.4225 23.4492 30.9547 23.269 30.4673 23.0563C30.3043 22.9852 30.1554 22.9432 30.1363 22.963C30.1172 22.9828 29.0213 24.4609 27.7009 26.2476C26.1224 28.3837 25.2598 29.5157 25.1822 29.5529C25.0997 29.5925 25.0316 29.5973 24.9565 29.5688C24.8854 29.5419 24.0063 28.4096 22.3665 26.2329C21.0011 24.4205 19.8646 22.9384 19.8408 22.9392C19.8171 22.94 19.5742 23.0366 19.3012 23.1537ZM24.1157 23.3324C24.1288 23.3857 24.1638 23.5745 24.1934 23.752L24.2471 24.0747H25.0008H25.7545L25.8075 23.7735C25.8366 23.6078 25.8704 23.419 25.8825 23.354L25.9045 23.2356H24.9981H24.0917L24.1157 23.3324ZM24.4813 24.7739C24.4809 24.7917 24.3744 25.3661 24.2447 26.0505L24.0088 27.2949L24.5343 27.9956L25.0597 28.6962L25.5264 28.0651C25.783 27.7181 25.993 27.4024 25.993 27.3636C25.993 27.3248 25.8861 26.7258 25.7555 26.0325C25.6249 25.3392 25.5181 24.7651 25.5181 24.7568C25.5181 24.7258 24.4819 24.7429 24.4813 24.7739Z" fill="#212121"/>
</svg>
