<svg width="50" height="50" viewBox="0 0 50 50" fill="none" xmlns="http://www.w3.org/2000/svg">
<path fill-rule="evenodd" clip-rule="evenodd" d="M23.6198 3.02329C21.8471 3.22753 20.5281 3.51875 19.1088 4.01925C15.1749 5.40644 11.6917 8.46355 9.75775 12.2266C8.46126 14.7494 7.76509 18.2082 8.0719 20.6032C8.31351 22.4892 8.88724 24.1459 10.1958 26.7369C11.4168 29.1548 12.7904 31.3454 14.9427 34.3076C17.2158 37.4361 21.4081 42.37 24.1271 45.1168L25.0014 46L25.8757 45.1168C28.5947 42.37 32.787 37.4361 35.0601 34.3076C37.1804 31.3894 38.5767 29.1687 39.7675 26.8211C41.4964 23.4126 42.1148 21.1657 41.9828 18.7731C41.6478 12.703 38.0611 7.39676 32.4451 4.66242C31.1275 4.02085 29.248 3.44018 27.6406 3.17807C26.8828 3.05442 24.2341 2.95246 23.6198 3.02329ZM24.2689 12.7424C21.4777 13.0199 19.1017 14.9419 18.2512 17.6101C18.0771 18.1561 18.0501 18.4163 18.0501 19.5448C18.0501 20.6734 18.0771 20.9336 18.2512 21.4796C18.9578 23.6964 20.7396 25.4321 23.0153 26.1204C23.5758 26.29 23.8429 26.3164 25.0014 26.3164C26.1599 26.3164 26.427 26.29 26.9875 26.1204C29.2632 25.4321 31.045 23.6964 31.7516 21.4796C31.9257 20.9336 31.9528 20.6734 31.9528 19.5448C31.9528 18.0469 31.816 17.4623 31.2056 16.3516C30.1162 14.369 28.0094 12.951 25.8845 12.7703C25.565 12.7431 25.2259 12.7103 25.1309 12.6974C25.0359 12.6844 24.6481 12.7046 24.2689 12.7424Z" fill="#ED1C24"/>
<path d="M24.2689 12.7424C21.4777 13.0199 19.1017 14.9419 18.2512 17.6101C18.0771 18.1561 18.0501 18.4163 18.0501 19.5448C18.0501 20.6734 18.0771 20.9336 18.2512 21.4796C18.9578 23.6964 20.7396 25.4321 23.0153 26.1204C23.5758 26.29 23.8429 26.3164 25.0014 26.3164C26.1599 26.3164 26.427 26.29 26.9875 26.1204C29.2632 25.4321 31.045 23.6964 31.7516 21.4796C31.9257 20.9336 31.9528 20.6734 31.9528 19.5448C31.9528 18.0469 31.816 17.4623 31.2056 16.3516C30.1162 14.369 28.0094 12.951 25.8845 12.7703C25.565 12.7431 25.2259 12.7103 25.1309 12.6974C25.0359 12.6844 24.6481 12.7046 24.2689 12.7424Z" fill="#ED1C24"/>
<path fill-rule="evenodd" clip-rule="evenodd" d="M18.057 9.55613C17.4994 9.64999 16.772 9.93301 16.6179 10.1162C16.5751 10.1669 16.546 10.2693 16.546 10.369C16.546 10.5334 16.5668 10.5573 17.6718 11.6675C18.291 12.2896 18.8173 12.8505 18.8414 12.9141C19.0591 13.4892 18.4883 14.0601 17.9132 13.8424C17.8497 13.8183 17.2888 13.292 16.6668 12.6727C15.5567 11.5675 15.5328 11.5468 15.3684 11.5468C15.1548 11.5468 15.0617 11.6261 14.9104 11.9367C14.3542 13.0789 14.3639 14.4814 14.9361 15.6304C15.1529 16.0658 15.344 16.3357 15.6965 16.7041C16.671 17.7228 18.1043 18.211 19.4186 17.9721L19.7264 17.9162L20.5676 18.758C21.0622 19.2528 21.3874 19.6079 21.3567 19.6196C21.108 19.7139 20.506 20.285 17.9614 22.8409C15.8599 24.9517 15.0515 25.7896 14.9511 25.9614C14.3483 26.9931 14.3553 28.1808 14.9699 29.1417C15.5416 30.0354 16.5865 30.5659 17.6325 30.4934C18.085 30.462 18.3479 30.3936 18.7502 30.2026C19.1443 30.0154 19.4399 29.7772 20.0649 29.1431C20.5602 28.6408 20.5676 28.6304 20.5676 28.4456C20.5676 28.2864 20.5485 28.2418 20.4414 28.1517C20.3576 28.0812 20.2663 28.0454 20.1699 28.0454C20.0387 28.0454 19.9691 28.0999 19.4447 28.613C18.5449 29.4933 18.2431 29.6552 17.4899 29.662C16.8498 29.6677 16.3843 29.4826 15.9519 29.0501C15.527 28.6251 15.3364 28.1535 15.3384 27.5324C15.3399 27.0629 15.4306 26.742 15.6619 26.3879C15.7373 26.2725 16.8212 25.1576 18.0706 23.9105L20.3423 21.6429L21.86 23.1613L23.3778 24.6796L22.8948 25.1639C22.4981 25.5616 22.4075 25.6752 22.3874 25.7992C22.3656 25.9328 22.3795 25.9668 22.5075 26.0949C22.6662 26.2535 22.7973 26.2775 22.9806 26.1816C23.0415 26.1497 23.5723 25.6372 24.1601 25.0427C24.9098 24.2844 25.2515 23.9098 25.3051 23.7874C25.347 23.6914 25.3926 23.613 25.4063 23.613C25.42 23.613 25.8059 23.988 26.2638 24.4464L27.0963 25.2798L27.0567 25.4622C26.9831 25.8009 26.9625 26.3387 27.0088 26.7116C27.1364 27.7396 27.5675 28.608 28.2964 29.3055C28.8541 29.8393 29.4479 30.1732 30.1907 30.3707C30.5521 30.4669 30.677 30.4798 31.2371 30.479C31.791 30.4782 31.9258 30.4642 32.2807 30.3704C32.7478 30.2469 33.3093 29.9973 33.3948 29.8752C33.4269 29.8294 33.4531 29.7187 33.4531 29.629C33.4531 29.4706 33.422 29.4349 32.3273 28.3351C31.7081 27.7131 31.1818 27.1521 31.1578 27.0886C30.9987 26.6684 31.264 26.1847 31.6844 26.1283C32.0726 26.0762 32.0669 26.072 33.3125 27.3104C34.4312 28.4228 34.4691 28.4558 34.6256 28.455C34.8348 28.4538 34.9358 28.3683 35.0848 28.066C35.6589 26.9015 35.6365 25.4988 35.0247 24.3024C34.5714 23.4159 33.7411 22.6471 32.8464 22.2854C32.2824 22.0574 31.9238 21.9927 31.2371 21.9953C30.8873 21.9967 30.5247 22.0171 30.4313 22.0407L30.2615 22.0836L28.9543 20.7758L27.6471 19.4679L29.9653 17.1351L32.2836 14.8023L32.8704 14.7956C33.2841 14.791 33.4902 14.772 33.5692 14.7311C33.6582 14.6851 33.8632 14.3207 34.5681 12.9561C35.056 12.0117 35.4671 11.1988 35.4818 11.1496C35.5323 10.9807 35.3897 10.786 34.7577 10.1616C34.135 9.54632 34.0812 9.50889 33.8494 9.52941C33.8077 9.5331 32.9982 9.93773 32.0504 10.4286C30.6952 11.1304 30.3147 11.3447 30.2692 11.4318C30.2282 11.5102 30.2093 11.715 30.2046 12.1296L30.198 12.7164L27.8654 15.035L25.5329 17.3535L24.2184 16.0405C23.1718 14.9951 22.9083 14.7107 22.9259 14.6454C22.938 14.6003 22.968 14.3836 22.9926 14.1639C23.0976 13.2245 22.8363 12.1895 22.2892 11.3777C22.0627 11.0416 21.5603 10.5206 21.2439 10.2937C20.3426 9.64736 19.1521 9.37185 18.057 9.55613ZM18.2901 10.3429C18.245 10.3527 18.1157 10.3788 18.0028 10.4008C17.616 10.4762 17.5945 10.4375 18.5648 11.412C19.6358 12.4876 19.6853 12.5661 19.6853 13.1893C19.6853 13.5472 19.6741 13.6028 19.552 13.851C19.3939 14.1722 19.1363 14.4244 18.8102 14.5773C18.6093 14.6715 18.5239 14.6864 18.1875 14.6864C17.5654 14.6864 17.4865 14.6367 16.4113 13.5658C15.7444 12.9015 15.5084 12.6898 15.4821 12.7322C15.3274 12.9819 15.2856 14.1139 15.4138 14.5838C15.6461 15.435 16.1521 16.148 16.8672 16.6317C17.6148 17.1375 18.5501 17.3181 19.4532 17.1311C19.6867 17.0828 19.9175 17.0549 19.9662 17.0693C20.0148 17.0836 20.7012 17.74 21.4915 18.5281L22.9283 19.9609L23.2866 19.6009L23.645 19.2408L22.8832 18.4822C22.4643 18.0649 22.095 17.6736 22.0627 17.6127C21.9071 17.3193 22.0904 17.0053 22.4172 17.0053C22.5878 17.0053 22.6045 17.019 23.4168 17.8252L24.2428 18.6451L24.6007 18.2872L24.9586 17.9292L23.5131 16.4832L22.0677 15.0371L22.0687 14.8618C22.0692 14.7653 22.103 14.511 22.1438 14.2965C22.3432 13.247 21.9872 12.1506 21.1832 11.3385C20.6572 10.8072 20.0502 10.4882 19.3187 10.3587C19.0816 10.3166 18.4548 10.3071 18.2901 10.3429ZM32.4272 11.1559L31.0525 11.8708L31.0413 12.5399L31.0301 13.2089L31.4125 13.5896L31.7948 13.9703L32.4641 13.959L33.1335 13.9477L33.8528 12.5586L34.572 11.1695L34.2083 10.804C34.0083 10.6031 33.835 10.4392 33.8233 10.4398C33.8115 10.4405 33.1833 10.7627 32.4272 11.1559ZM26.9281 17.1081L23.5021 20.5347L23.9842 21.0169L24.4663 21.4991L27.8931 18.0719L31.3198 14.6447L30.837 14.1631L30.3541 13.6815L26.9281 17.1081ZM26.6929 20.4208L26.3556 20.7582L27.1754 21.5843C27.9815 22.3967 27.9952 22.4134 27.9952 22.584C27.9952 22.9109 27.6812 23.0942 27.3879 22.9385C27.327 22.9062 26.9358 22.5369 26.5185 22.1179L25.76 21.3561L25.4208 21.6936C25.2343 21.8792 25.0816 22.0498 25.0816 22.0728C25.0816 22.0957 25.7228 22.756 26.5066 23.54L27.9315 24.9655L27.9305 25.1409C27.9299 25.2373 27.896 25.4916 27.8551 25.7061C27.6125 26.9789 28.2269 28.3724 29.3633 29.1268C29.657 29.3218 29.9679 29.4597 30.3689 29.573C30.8791 29.7171 32.0003 29.6857 32.2678 29.5199C32.3102 29.4936 32.0985 29.2576 31.4344 28.5906C30.3636 27.5153 30.3138 27.4363 30.3138 26.8142C30.3138 26.4778 30.3288 26.3924 30.423 26.1914C30.5758 25.8653 30.828 25.6077 31.1491 25.4496C31.3973 25.3274 31.4529 25.3162 31.8108 25.3162C32.4337 25.3162 32.5126 25.3659 33.5854 26.4346C34.0757 26.923 34.4877 27.3117 34.5011 27.2984C34.5604 27.239 34.6467 26.8017 34.6695 26.4448C34.7331 25.4531 34.3965 24.5667 33.6788 23.8356C33.1253 23.2717 32.5302 22.9607 31.7529 22.8292C31.4059 22.7705 30.7363 22.8034 30.3999 22.8957C30.2668 22.9322 30.1098 22.9503 30.0511 22.936C29.9849 22.9198 29.4078 22.3745 28.5279 21.4967C27.7489 20.7194 27.0931 20.0834 27.0709 20.0834C27.0485 20.0834 26.8785 20.2352 26.6929 20.4208ZM21.573 20.4484C21.5053 20.4909 21.3302 20.648 21.1839 20.7976L20.9178 21.0694L22.4347 22.5869L23.9517 24.1044L24.1728 23.8895C24.5941 23.4799 24.7128 23.1809 24.5867 22.8461C24.531 22.6981 22.3576 20.5152 22.1839 20.4328C22.0035 20.3472 21.7226 20.3544 21.573 20.4484ZM21.2167 26.85C21.1141 26.9417 21.0847 27.0011 21.0847 27.1166C21.0847 27.3857 21.3332 27.5963 21.5783 27.5348C21.8854 27.4577 21.9868 27.0781 21.7608 26.8521C21.5978 26.689 21.3977 26.6883 21.2167 26.85Z" fill="white"/>
</svg>
